<?xml version="1.0" standalone="no"?>
<!DOCTYPE svg PUBLIC "-//W3C//DTD SVG 20010904//EN"
 "http://www.w3.org/TR/2001/REC-SVG-20010904/DTD/svg10.dtd">
<svg version="1.0" xmlns="http://www.w3.org/2000/svg"
 width="512.000000pt" height="512.000000pt" viewBox="0 0 512.000000 512.000000"
 preserveAspectRatio="xMidYMid meet">
<metadata>
Created by potrace 1.14, written by Peter Selinger 2001-2017
</metadata>
<g transform="translate(0.000000,512.000000) scale(0.100000,-0.100000)"
fill="#000000" stroke="none">
<path d="M1311 4997 c-13 -6 -33 -25 -45 -40 -19 -26 -21 -42 -22 -189 l0
-161 -40 -19 c-21 -10 -83 -38 -136 -62 -54 -25 -98 -49 -99 -53 -1 -4 -2
-134 -4 -288 l-2 -280 -28 -55 c-15 -30 -47 -95 -70 -145 -23 -49 -85 -180
-138 -290 -52 -110 -116 -245 -142 -300 -26 -55 -81 -169 -121 -253 -41 -84
-74 -155 -74 -157 0 -1 -33 -72 -74 -156 -216 -450 -273 -575 -281 -616 -3
-15 -8 -62 -12 -103 -12 -168 78 -351 222 -450 22 -15 153 -84 290 -155 235
-120 399 -204 761 -390 l150 -77 0 -310 c-1 -220 2 -316 11 -327 10 -15 96
-17 1077 -16 857 0 1068 3 1078 13 10 10 13 81 13 314 l0 301 135 69 c74 38
263 135 420 215 253 129 527 270 570 293 8 4 35 18 60 31 189 96 302 291 287
494 -8 98 -21 140 -87 280 -108 227 -153 322 -192 405 -44 91 -109 227 -181
380 -85 181 -225 476 -289 610 -36 74 -93 196 -129 270 l-63 135 -1 240 c-1
132 -5 254 -9 271 -10 43 -59 86 -136 120 -36 15 -67 29 -70 31 -2 3 -5 82 -5
176 -1 188 -5 205 -58 237 -31 19 -62 20 -1287 20 -976 0 -1260 -3 -1279 -13z
m73 -2056 c-20 -20 -49 -61 -63 -91 -35 -74 -36 -191 -3 -262 43 -93 114 -153
213 -182 30 -9 55 -16 57 -16 24 2 32 -8 46 -52 58 -181 203 -374 364 -485
l52 -36 0 -68 0 -67 -157 2 c-142 2 -163 4 -208 25 -62 29 -66 31 -305 131
-107 45 -214 91 -237 101 -24 11 -54 24 -67 29 l-24 9 53 183 c54 190 158 557
243 858 27 96 53 189 58 205 7 22 10 -9 12 -109 l3 -139 -37 -36z m2376 119
c32 -108 201 -704 206 -725 2 -11 26 -96 53 -188 l49 -168 -32 -13 c-17 -8
-78 -34 -136 -59 -58 -24 -202 -85 -320 -135 l-215 -90 -147 1 -148 0 0 67 0
67 57 39 c160 110 310 313 363 492 7 23 18 43 24 43 6 1 21 3 32 4 96 10 205
90 251 183 24 48 28 69 28 137 -1 96 -26 162 -86 221 l-39 38 1 141 0 140 20
-65 c11 -36 29 -94 39 -130z"/>
</g>
</svg>
